{"title":"Dilwale (2015) HQ 1080p REM-Bluray x264 DTS-HDMA MSubs [DDR]","uid":14559077,"size":14216282716,"categoryP":"video","categoryS":"hd___movies","magnet":"?xt=urn:btih:af3c59765d9d83eae39bd187322e1f28c2fc5e42&amp;dn=Dilwale+%282015%29+HQ+1080p+REM-Bluray+x264+DTS-HDMA+MSubs+%5BDDR%5D&amp;tr=udp%3A%2F%2Ftracker.leechers-paradise.org%3A6969&amp;tr=udp%3A%2F%2Fzer0day.ch%3A1337&amp;tr=udp%3A%2F%2Fopen.demonii.com%3A1337&amp;tr=udp%3A%2F%2Ftracker.coppersurfer.tk%3A6969&amp;tr=udp%3A%2F%2Fexodus.desync.com%3A6969","seeders":6,"leechers":1,"uploader":"SaM","files":5,"time":1462722442,"description":"- BollywooD MoviE -\r\n**- DILWALE -**\r\n- (2015) -\r\n** HQ 1080p REM Blu-Ray / x264 / DTS-HDMA 5.1 **\r\nEnglish &amp; German subtitles\r\n \nhttp://extraimago.com/image/adzH \nhttp://extraimago.com/image/adzF \nhttp://extraimago.com/image/adzD \nhttp://extraimago.com/image/adz5 \nhttp://extraimago.com/image/adzg \nhttp://extraimago.com/image/adzX \nhttp://extraimago.com/image/adzP \nhttp://extraimago.com/image/adzG \nhttp://extraimago.com/image/adzr \nhttp://extraimago.com/image/adzp \nhttp://extraimago.com/image/adzY \nhttp://extraimago.com/image/adzC \nhttp://extraimago.com/image/adzB \nhttp://extraimago.com/image/adz4 \nhttp://extraimago.com/image/adze \nhttp://extraimago.com/image/adzZ \nhttp://extraimago.com/image/adzK \nhttp://extraimago.com/image/adzJ\r\n\r\n[ Specs ]\r\nGeneral\r\nSource = BD-Remux @ HDT\r\nFormat : Matroska\r\nFile size : 13.2 GiB\r\nDuration : 2h 34mn\r\nOverall bit rate : 12.2 Mbps\r\n\r\nVideo\r\nFormat : AVC\r\nFormat profile :   \r\nBit rate : 10 000 Kbps\r\nWidth : 1 920 pixels\r\nHeight : 800 pixels\r\nDisplay aspect ratio : 2.40:1\r\nFrame rate mode : Constant\r\nFrame rate : 24.000 fps\r\nBit depth : 8 bits\r\nScan type : Progressive\r\nStream size : 10.8 GiB (82%)\r\n\r\nAudio #1\r\nFormat : DTS\r\nFormat profile : MA / Core\r\nBit rate mode : Variable / Constant\r\nBit rate : 2 227 Kbps / 768 Kbps\r\nChannel(s) : 6 channels\r\nChannel positions : Front: L C R, Side: L R, LFE\r\nSampling rate : 48.0 KHz\r\nBit depth : 16 bits\r\nCompression mode : Lossless / Lossy\r\nStream size : 2.40 GiB (18%)\r\nDefault : Yes\r\n\r\nLanguage : Hindi\r\n\r\nChapters: YES (named)\r\n\r\n\r\nA DDR Exclusive Release...!","torrent":{"xt":"urn:btih:af3c59765d9d83eae39bd187322e1f28c2fc5e42","amp;dn":"Dilwale+%282015%29+HQ+1080p+REM-Bluray+x264+DTS-HDMA+MSubs+%5BDDR%5D","amp;tr":["udp%3A%2F%2Ftracker.leechers-paradise.org%3A6969","udp%3A%2F%2Fzer0day.ch%3A1337","udp%3A%2F%2Fopen.demonii.com%3A1337","udp%3A%2F%2Ftracker.coppersurfer.tk%3A6969","udp%3A%2F%2Fexodus.desync.com%3A6969"],"infoHash":"af3c59765d9d83eae39bd187322e1f28c2fc5e42","infoHashBuffer":{"type":"Buffer","data":[175,60,89,118,93,157,131,234,227,155,209,135,50,46,31,40,194,252,94,66]},"announce":[],"urlList":[]}}